<svg id="logosandtypes_com" xmlns="http://www.w3.org/2000/svg" viewBox="0 0 150 150"><style>.st1{fill-rule:evenodd;clip-rule:evenodd;fill:#004580}</style><path d="M0 0h150v150H0V0z" fill="none" id="Layer_3"/><g id="logosandtypes_com"><path class="st1" d="M95 19.7c-.6 0-1.3.1-2.6 1.8C91.5 22.6 79.5 41 79.5 41l16.9 26.6s28.7-43.2 29.4-44.3c.8-1.2-.4-3.5-1.8-3.7-.7 0-29 .1-29 .1zM96 76.7l-18.2 26s14.4 22.9 15.4 24.3c1.2 1.9 2 1.8 2.6 1.8 0 0 27.4.2 28.8 0 1.4-.2 2.6-2.4 1.8-3.7C125.8 124 96 76.7 96 76.7z"/><path id="path5131" d="M61.6 67.6S25.1 122.2 24 123.7c-1.1 1.5-1.4 4.7 1.5 5 2.9.3 10.1 0 18.1-.1 13.1-.1 11.1.6 13.9-3.4 10-14.2 35.7-52.9 35.7-52.9v-.1l-31.6-4.6z" fill-rule="evenodd" clip-rule="evenodd" fill="#c60a2c"/><path id="path7074" d="M31.5 19.4c-3.9 0-4.4 3-3.2 4.8 1.2 1.9 30.4 48.1 30.4 48.1h34.6L62.7 23.9c-1.4-2-2.3-4.3-6.8-4.4 0 0-23.5-.1-24.4-.1z" fill-rule="evenodd" clip-rule="evenodd" fill="#8d0400"/></g></svg>